<svg width="16" height="16" viewBox="0 0 16 16" fill="none" xmlns="http://www.w3.org/2000/svg">
<path fill-rule="evenodd" clip-rule="evenodd" d="M5.58475 14.9267C7.92859 14.9267 9.93522 13.624 10.7636 11.7774C10.7738 11.7548 7.43772 12.6443 7.54409 12.3299C7.59159 12.1895 9.63659 11.4424 11.1265 10.5711C11.9828 10.0702 12.3772 9.01 12.3772 9.01C12.3772 9.01 10.9345 9.71047 10.2051 9.88815C8.73537 10.2463 7.44159 10.2077 7.44159 10.1704C7.44159 10.0897 9.58988 9.68153 12.5758 7.862C13.9802 7.00615 14.3617 5.53197 14.3617 5.53197C14.3617 5.53197 12.8176 6.45172 11.8842 6.75537C9.67053 7.47547 7.65047 7.69247 7.65047 7.59503C7.65047 7.3864 9.42819 6.89756 11.313 5.98428C12.293 5.50943 13.1417 4.88906 14.1252 4.19915C15.7346 3.07037 16 1.06 16 1.06C16 1.06 14.4127 2.08375 13.6381 2.42373C10.4419 3.82659 7.61966 4.56247 5.58475 4.72178C2.513 4.96228 0 7.1055 0 9.88815C0 12.6708 2.50037 14.9267 5.58475 14.9267Z" fill="#212121"/>
</svg>
