<svg width="16" height="16" viewBox="0 0 16 16" fill="none" xmlns="http://www.w3.org/2000/svg">
<g clip-path="url(#clip0_0_153)">
<path fill-rule="evenodd" clip-rule="evenodd" d="M3.15833 13.7339C3.10341 13.6822 3.0491 13.6296 2.99541 13.5759C0.161522 10.742 0.161522 6.14734 2.99541 3.31347C5.82929 0.479563 14.8592 0.289978 14.8592 0.289978C14.8592 0.289978 16.0917 10.742 13.2579 13.5759C10.741 16.0927 6.83529 16.3743 4.0077 14.4206L6.28607 11.6246L9.92826 10.8383L6.95517 10.5411L8.8446 8.61725L10.9954 8.14609L9.29467 7.64243L10.9954 4.57443L8.57629 7.28781L7.64214 5.96959L7.97098 8.14609L6.28607 10.0455L5.50504 7.6424V10.8383L3.15833 13.7339Z" fill="#212121"/>
</g>
<defs>
<clipPath id="clip0_0_153">
<rect width="16" height="16" fill="white"/>
</clipPath>
</defs>
</svg>
